M48
METRIC,LZ,000.000
;FILE_FORMAT=3:3
;TYPE=PLATED
;Layer: PTH_Through
;EasyEDA v6.5.40, 2024-07-03 13:40:39
;c2fe2fc941da410b8db267e61518d843,7243cdaf381449fe92b9da44aa7c23a7,10
;Gerber Generator version 0.2
;Holesize 1 = 0.306 mm
T01C0.306
;Holesize 2 = 0.712 mm
T02C0.712
;Holesize 3 = 0.800 mm
T03C0.800
;Holesize 4 = 0.889 mm
T04C0.889
;Holesize 5 = 0.901 mm
T05C0.901
;Holesize 6 = 1.000 mm
T06C1.000
%
G05
G90
T01
X038576Y-035060
X081472Y-034798
X051120Y-026602
X046539Y-021086
X038528Y-021086
X067431Y-044652
X073175Y-028061
X071573Y-033922
X028194Y-033877
X021567Y-025897
X021371Y-022246
X064615Y-019795
X062298Y-009148
X060609Y-017733
X060413Y-023073
X053840Y-022694
X048106Y-030556
X030883Y-029473
X055233Y-044032
X048682Y-036597
X030630Y-036597
X031201Y-047728
X037446Y-042749
X030937Y-038149
X054723Y-026345
X055147Y-009672
X026280Y-041509
X026852Y-008845
X043379Y-015866
X046096Y-042494
X091991Y-026412
X028609Y-034677
X069311Y-034337
X035273Y-024396
X040512Y-028533
X073523Y-050321
X066505Y-037525
X059218Y-018611
X044899Y-018611
X056152Y-039317
X057971Y-035754
X036783Y-050843
X061163Y-047906
X074754Y-026444
X091858Y-051369
X097670Y-023358
X047349Y-020204
X052429Y-020204
X043520Y-005793
X043520Y-010873
X048600Y-005793
X053680Y-005793
X053057Y-039977
X049357Y-044604
X004628Y-019106
X004628Y-024186
X004628Y-029266
X004628Y-034346
X004628Y-039426
X004628Y-044506
X009708Y-014026
X009708Y-024186
X009708Y-029266
X009708Y-034346
X009708Y-039426
X009708Y-044506
X014788Y-008946
X014788Y-014026
X014788Y-019106
X014788Y-024186
X014788Y-034346
X014788Y-039426
X014788Y-044506
X019868Y-003866
X019868Y-008946
X019868Y-034346
X019868Y-039426
X019868Y-044506
X024948Y-003866
X030028Y-003866
X060508Y-003866
X065588Y-003866
X070668Y-003866
X075748Y-003866
X080828Y-003866
X080828Y-014026
X080828Y-019106
X085908Y-003866
X090988Y-003866
X090988Y-044506
X096068Y-003866
X096068Y-008946
X096068Y-014026
X096068Y-019106
X096068Y-044506
X101148Y-008946
X101148Y-014026
X101148Y-019106
X101148Y-024186
X101148Y-029266
X101148Y-034346
X101148Y-039426
X101148Y-044506
X047349Y-020204
X052429Y-020204
X043520Y-005793
X043520Y-010873
X048600Y-005793
X053680Y-005793
X053057Y-039977
X049357Y-044604
X004628Y-019106
X004628Y-024186
X004628Y-029266
X004628Y-034346
X004628Y-039426
X004628Y-044506
X009708Y-014026
X009708Y-024186
X009708Y-029266
X009708Y-034346
X009708Y-039426
X009708Y-044506
X014788Y-008946
X014788Y-014026
X014788Y-019106
X014788Y-024186
X014788Y-034346
X014788Y-039426
X014788Y-044506
X019868Y-003866
X019868Y-008946
X019868Y-034346
X019868Y-039426
X019868Y-044506
X024948Y-003866
X030028Y-003866
X060508Y-003866
X065588Y-003866
X070668Y-003866
X075748Y-003866
X080828Y-003866
X080828Y-014026
X080828Y-019106
X085908Y-003866
X090988Y-003866
X090988Y-044506
X096068Y-003866
X096068Y-008946
X096068Y-014026
X096068Y-019106
X096068Y-044506
X101148Y-008946
X101148Y-014026
X101148Y-019106
X101148Y-024186
X101148Y-029266
X101148Y-034346
X101148Y-039426
X101148Y-044506
T02
X016510Y-011938
X016510Y-009398
X023114Y-036576
X023114Y-034036
X022860Y-023368
X022860Y-020828
X053848Y-029718
X053848Y-027178
X054108Y-011430
X054108Y-008890
T03
X019304Y-014748
X019304Y-006808
X021844Y-014748
X021844Y-006808
X024384Y-014748
X024384Y-006808
X026924Y-014748
X026924Y-006808
X029464Y-014748
X029464Y-006808
X032004Y-014748
X032004Y-006808
X034544Y-014748
X034544Y-006808
X037084Y-014748
X037084Y-006808
X039624Y-014748
X039624Y-006808
X042164Y-014748
X042164Y-006808
X057150Y-040312
X057150Y-024712
X059690Y-040312
X059690Y-024712
X062230Y-040312
X062230Y-024712
X064770Y-040312
X064770Y-024712
X067310Y-040312
X067310Y-024712
X069850Y-040312
X069850Y-024712
X072390Y-040312
X072390Y-024712
X074930Y-040312
X074930Y-024712
X077470Y-040312
X077470Y-024712
X080010Y-040312
X080010Y-024712
X082550Y-040312
X082550Y-024712
X085090Y-040312
X085090Y-024712
X087630Y-040312
X087630Y-024712
X090170Y-040312
X090170Y-024712
X092710Y-040312
X092710Y-024712
X095250Y-040312
X095250Y-024712
T04
X004572Y-049022
X098552Y-049022
X096012Y-049022
X093472Y-049022
X090932Y-049022
X088392Y-049022
X085852Y-049022
X083312Y-049022
X080772Y-049022
X078232Y-049022
X075692Y-049022
X073152Y-049022
X070612Y-049022
X068072Y-049022
X065532Y-049022
X062992Y-049022
X060452Y-049022
X057912Y-049022
X055372Y-049022
X052832Y-049022
X050292Y-049022
X047752Y-049022
X045212Y-049022
X042672Y-049022
X040132Y-049022
X037592Y-049022
X035052Y-049022
X032512Y-049022
X029972Y-049022
X027432Y-049022
X024892Y-049022
X022352Y-049022
X019812Y-049022
X017272Y-049022
X014732Y-049022
X012192Y-049022
X009652Y-049022
X007112Y-049022
X101092Y-049022
X098552Y-046482
X096012Y-046482
X093472Y-046482
X090932Y-046482
X088392Y-046482
X085852Y-046482
X083312Y-046482
X080772Y-046482
X078232Y-046482
X075692Y-046482
X073152Y-046482
X070612Y-046482
X068072Y-046482
X065532Y-046482
X062992Y-046482
X060452Y-046482
X057912Y-046482
X055372Y-046482
X052832Y-046482
X050292Y-046482
X047752Y-046482
X045212Y-046482
X042672Y-046482
X040132Y-046482
X037592Y-046482
X035052Y-046482
X032512Y-046482
X029972Y-046482
X027432Y-046482
X024892Y-046482
X022352Y-046482
X019812Y-046482
X017272Y-046482
X014732Y-046482
X012192Y-046482
X009652Y-046482
X101092Y-046482
X007112Y-046482
X004572Y-046482
X103632Y-049022
X103632Y-046482
T05
X064770Y-006350
X062230Y-006350
X059690Y-006350
X057150Y-006350
X092710Y-006350
X090170Y-006350
X087630Y-006350
X085090Y-006350
X082550Y-006350
X080010Y-006350
X077470Y-006350
X067310Y-006350
X069850Y-006350
X072390Y-006350
X074930Y-006350
X095250Y-006350
X087630Y-021590
X077470Y-021590
X074930Y-021590
X072390Y-021590
X069850Y-021590
X067310Y-021590
X064770Y-021590
X062230Y-021590
X059690Y-021590
X057150Y-021590
X080010Y-021590
X085090Y-021590
X082550Y-021590
X090170Y-021590
X095250Y-021590
X092710Y-021590
T06
X026340Y-026886
X028880Y-026886
X031420Y-026886
X033960Y-026886
X036500Y-026886
X039040Y-026886
X041580Y-026886
X026340Y-018986
X028880Y-018986
X031420Y-018986
X033960Y-018986
X036500Y-018986
X039040Y-018986
X041580Y-018986
X025079Y-040065
X027619Y-040065
X040319Y-040065
X042859Y-040065
X030159Y-040065
X032699Y-040065
X037779Y-040065
X035239Y-040065
X042859Y-032125
X040319Y-032125
X037779Y-032125
X035239Y-032125
X032699Y-032125
X030159Y-032125
X027619Y-032125
X025079Y-032125
M30
