M48
METRIC,LZ,000.000
;FILE_FORMAT=3:3
;TYPE=PLATED
;Layer: PTH_Through_Via
;EasyEDA v6.5.40, 2024-07-03 13:40:39
;c2fe2fc941da410b8db267e61518d843,7243cdaf381449fe92b9da44aa7c23a7,10
;Gerber Generator version 0.2
;Holesize 1 = 0.306 mm
T01C0.306
%
G05
G90
T01
X038576Y-035060
X081472Y-034798
X051120Y-026602
X046539Y-021086
X038528Y-021086
X067431Y-044652
X073175Y-028061
X071573Y-033922
X028194Y-033877
X021567Y-025897
X021371Y-022246
X064615Y-019795
X062298Y-009148
X060609Y-017733
X060413Y-023073
X053840Y-022694
X048106Y-030556
X030883Y-029473
X055233Y-044032
X048682Y-036597
X030630Y-036597
X031201Y-047728
X037446Y-042749
X030937Y-038149
X054723Y-026345
X055147Y-009672
X026280Y-041509
X026852Y-008845
X043379Y-015866
X046096Y-042494
X091991Y-026412
X028609Y-034677
X069311Y-034337
X035273Y-024396
X040512Y-028533
X073523Y-050321
X066505Y-037525
X059218Y-018611
X044899Y-018611
X056152Y-039317
X057971Y-035754
X036783Y-050843
X061163Y-047906
X074754Y-026444
X091858Y-051369
X097670Y-023358
X047349Y-020204
X052429Y-020204
X043520Y-005793
X043520Y-010873
X048600Y-005793
X053680Y-005793
X053057Y-039977
X049357Y-044604
X004628Y-019106
X004628Y-024186
X004628Y-029266
X004628Y-034346
X004628Y-039426
X004628Y-044506
X009708Y-014026
X009708Y-024186
X009708Y-029266
X009708Y-034346
X009708Y-039426
X009708Y-044506
X014788Y-008946
X014788Y-014026
X014788Y-019106
X014788Y-024186
X014788Y-034346
X014788Y-039426
X014788Y-044506
X019868Y-003866
X019868Y-008946
X019868Y-034346
X019868Y-039426
X019868Y-044506
X024948Y-003866
X030028Y-003866
X060508Y-003866
X065588Y-003866
X070668Y-003866
X075748Y-003866
X080828Y-003866
X080828Y-014026
X080828Y-019106
X085908Y-003866
X090988Y-003866
X090988Y-044506
X096068Y-003866
X096068Y-008946
X096068Y-014026
X096068Y-019106
X096068Y-044506
X101148Y-008946
X101148Y-014026
X101148Y-019106
X101148Y-024186
X101148Y-029266
X101148Y-034346
X101148Y-039426
X101148Y-044506
X047349Y-020204
X052429Y-020204
X043520Y-005793
X043520Y-010873
X048600Y-005793
X053680Y-005793
X053057Y-039977
X049357Y-044604
X004628Y-019106
X004628Y-024186
X004628Y-029266
X004628Y-034346
X004628Y-039426
X004628Y-044506
X009708Y-014026
X009708Y-024186
X009708Y-029266
X009708Y-034346
X009708Y-039426
X009708Y-044506
X014788Y-008946
X014788Y-014026
X014788Y-019106
X014788Y-024186
X014788Y-034346
X014788Y-039426
X014788Y-044506
X019868Y-003866
X019868Y-008946
X019868Y-034346
X019868Y-039426
X019868Y-044506
X024948Y-003866
X030028Y-003866
X060508Y-003866
X065588Y-003866
X070668Y-003866
X075748Y-003866
X080828Y-003866
X080828Y-014026
X080828Y-019106
X085908Y-003866
X090988Y-003866
X090988Y-044506
X096068Y-003866
X096068Y-008946
X096068Y-014026
X096068Y-019106
X096068Y-044506
X101148Y-008946
X101148Y-014026
X101148Y-019106
X101148Y-024186
X101148Y-029266
X101148Y-034346
X101148Y-039426
X101148Y-044506
M30
