G04 Layer: BottomSolderMaskLayer*
G04 EasyEDA v6.5.40, 2024-07-03 13:40:39*
G04 c2fe2fc941da410b8db267e61518d843,7243cdaf381449fe92b9da44aa7c23a7,10*
G04 Gerber Generator version 0.2*
G04 Scale: 100 percent, Rotated: No, Reflected: No *
G04 Dimensions in millimeters *
G04 leading zeros omitted , absolute positions ,4 integer and 5 decimal *
%FSLAX45Y45*%
%MOMM*%

%AMMACRO1*1,1,$1,$2,$3*1,1,$1,$4,$5*1,1,$1,0-$2,0-$3*1,1,$1,0-$4,0-$5*20,1,$1,$2,$3,$4,$5,0*20,1,$1,$4,$5,0-$2,0-$3,0*20,1,$1,0-$2,0-$3,0-$4,0-$5,0*20,1,$1,0-$4,0-$5,$2,$3,0*4,1,4,$2,$3,$4,$5,0-$2,0-$3,0-$4,0-$5,$2,$3,0*%
%ADD10MACRO1,0.2032X0.7874X-0.7874X-0.7874X-0.7874*%
%ADD11C,1.7780*%
%ADD12R,1.6016X2.1016*%
%ADD13O,1.6015970000000002X2.1015960000000002*%
%ADD14O,1.5635986X1.9291046*%
%ADD15O,1.6256000000000002X2.1015960000000002*%
%ADD16R,1.8016X1.8016*%
%ADD17C,1.8016*%
%ADD18C,1.4986*%

%LPD*%
D10*
G01*
X457200Y-4902200D03*
D11*
G01*
X9855200Y-4902200D03*
G01*
X9601200Y-4902200D03*
G01*
X9347200Y-4902200D03*
G01*
X9093200Y-4902200D03*
G01*
X8839200Y-4902200D03*
G01*
X8585200Y-4902200D03*
G01*
X8331200Y-4902200D03*
G01*
X8077200Y-4902200D03*
G01*
X7823200Y-4902200D03*
G01*
X7569200Y-4902200D03*
G01*
X7315200Y-4902200D03*
G01*
X7061200Y-4902200D03*
G01*
X6807200Y-4902200D03*
G01*
X6553200Y-4902200D03*
G01*
X6299200Y-4902200D03*
G01*
X6045200Y-4902200D03*
G01*
X5791200Y-4902200D03*
G01*
X5537200Y-4902200D03*
G01*
X5283200Y-4902200D03*
G01*
X5029200Y-4902200D03*
G01*
X4775200Y-4902200D03*
G01*
X4521200Y-4902200D03*
G01*
X4267200Y-4902200D03*
G01*
X4013200Y-4902200D03*
G01*
X3759200Y-4902200D03*
G01*
X3505200Y-4902200D03*
G01*
X3251200Y-4902200D03*
G01*
X2997200Y-4902200D03*
G01*
X2743200Y-4902200D03*
G01*
X2489200Y-4902200D03*
G01*
X2235200Y-4902200D03*
G01*
X1981200Y-4902200D03*
G01*
X1727200Y-4902200D03*
G01*
X1473200Y-4902200D03*
G01*
X1219200Y-4902200D03*
G01*
X965200Y-4902200D03*
G01*
X711200Y-4902200D03*
G01*
X10109200Y-4902200D03*
G01*
X9855200Y-4648200D03*
G01*
X9601200Y-4648200D03*
G01*
X9347200Y-4648200D03*
G01*
X9093200Y-4648200D03*
G01*
X8839200Y-4648200D03*
G01*
X8585200Y-4648200D03*
G01*
X8331200Y-4648200D03*
G01*
X8077200Y-4648200D03*
G01*
X7823200Y-4648200D03*
G01*
X7569200Y-4648200D03*
G01*
X7315200Y-4648200D03*
G01*
X7061200Y-4648200D03*
G01*
X6807200Y-4648200D03*
G01*
X6553200Y-4648200D03*
G01*
X6299200Y-4648200D03*
G01*
X6045200Y-4648200D03*
G01*
X5791200Y-4648200D03*
G01*
X5537200Y-4648200D03*
G01*
X5283200Y-4648200D03*
G01*
X5029200Y-4648200D03*
G01*
X4775200Y-4648200D03*
G01*
X4521200Y-4648200D03*
G01*
X4267200Y-4648200D03*
G01*
X4013200Y-4648200D03*
G01*
X3759200Y-4648200D03*
G01*
X3505200Y-4648200D03*
G01*
X3251200Y-4648200D03*
G01*
X2997200Y-4648200D03*
G01*
X2743200Y-4648200D03*
G01*
X2489200Y-4648200D03*
G01*
X2235200Y-4648200D03*
G01*
X1981200Y-4648200D03*
G01*
X1727200Y-4648200D03*
G01*
X1473200Y-4648200D03*
G01*
X1219200Y-4648200D03*
G01*
X965200Y-4648200D03*
G01*
X10109200Y-4648200D03*
G01*
X711200Y-4648200D03*
G01*
X457200Y-4648200D03*
G01*
X10363200Y-4902200D03*
G01*
X10363200Y-4648200D03*
D12*
G01*
X2634005Y-2688615D03*
D13*
G01*
X2888005Y-2688615D03*
G01*
X3142005Y-2688615D03*
G01*
X3396005Y-2688615D03*
G01*
X3650005Y-2688615D03*
G01*
X3904005Y-2688615D03*
G01*
X4158005Y-2688615D03*
G01*
X2634005Y-1898624D03*
G01*
X2888005Y-1898624D03*
G01*
X3142005Y-1898624D03*
G01*
X3396005Y-1898624D03*
G01*
X3650005Y-1898624D03*
G01*
X3904005Y-1898624D03*
G01*
X4158005Y-1898624D03*
D14*
G01*
X1930400Y-1474800D03*
G01*
X1930400Y-680796D03*
G01*
X2184400Y-1474800D03*
G01*
X2184400Y-680796D03*
G01*
X2438400Y-1474800D03*
G01*
X2438400Y-680796D03*
G01*
X2692400Y-1474800D03*
G01*
X2692400Y-680796D03*
G01*
X2946400Y-1474800D03*
G01*
X2946400Y-680796D03*
G01*
X3200400Y-1474800D03*
G01*
X3200400Y-680796D03*
G01*
X3454400Y-1474800D03*
G01*
X3454400Y-680796D03*
G01*
X3708400Y-1474800D03*
G01*
X3708400Y-680796D03*
G01*
X3962400Y-1474800D03*
G01*
X3962400Y-680796D03*
G01*
X4216400Y-1474800D03*
G01*
X4216400Y-680796D03*
D15*
G01*
X6477025Y-635000D03*
G01*
X6223025Y-635000D03*
G01*
X5969025Y-635000D03*
G01*
X5715025Y-635000D03*
G01*
X9271025Y-635000D03*
G01*
X9017025Y-635000D03*
G01*
X8763025Y-635000D03*
G01*
X8509025Y-635000D03*
G01*
X8255025Y-635000D03*
G01*
X8001025Y-635000D03*
G01*
X7747025Y-635000D03*
G01*
X6731025Y-635000D03*
G01*
X6985025Y-635000D03*
G01*
X7239025Y-635000D03*
G01*
X7493025Y-635000D03*
G01*
X9525025Y-635000D03*
G01*
X8763025Y-2159000D03*
D13*
G01*
X7747025Y-2159000D03*
G01*
X7493025Y-2159000D03*
G01*
X7239025Y-2159000D03*
G01*
X6985025Y-2159000D03*
G01*
X6731025Y-2159000D03*
G01*
X6477025Y-2159000D03*
G01*
X6223025Y-2159000D03*
G01*
X5969025Y-2159000D03*
D12*
G01*
X5715000Y-2159000D03*
D15*
G01*
X8001025Y-2159000D03*
G01*
X8509025Y-2159000D03*
D13*
G01*
X8255025Y-2159000D03*
D15*
G01*
X9017025Y-2159000D03*
G01*
X9525025Y-2159000D03*
G01*
X9271025Y-2159000D03*
D14*
G01*
X5715025Y-4031208D03*
G01*
X5715025Y-2471191D03*
G01*
X5969025Y-4031208D03*
G01*
X5969025Y-2471191D03*
G01*
X6223025Y-4031208D03*
G01*
X6223025Y-2471191D03*
G01*
X6477025Y-4031208D03*
G01*
X6477025Y-2471191D03*
G01*
X6731025Y-4031208D03*
G01*
X6731025Y-2471191D03*
G01*
X6985025Y-4031208D03*
G01*
X6985025Y-2471191D03*
G01*
X7239025Y-4031208D03*
G01*
X7239025Y-2471191D03*
G01*
X7493025Y-4031208D03*
G01*
X7493025Y-2471191D03*
G01*
X7747025Y-4031208D03*
G01*
X7747025Y-2471191D03*
G01*
X8001025Y-4031208D03*
G01*
X8001025Y-2471191D03*
G01*
X8255025Y-4031208D03*
G01*
X8255025Y-2471191D03*
G01*
X8509025Y-4031208D03*
G01*
X8509025Y-2471191D03*
G01*
X8763025Y-4031208D03*
G01*
X8763025Y-2471191D03*
G01*
X9017025Y-4031208D03*
G01*
X9017025Y-2471191D03*
G01*
X9271025Y-4031208D03*
G01*
X9271025Y-2471191D03*
G01*
X9525025Y-4031208D03*
G01*
X9525025Y-2471191D03*
D16*
G01*
X2507945Y-4006519D03*
D17*
G01*
X2761945Y-4006519D03*
G01*
X4031945Y-4006519D03*
G01*
X4285945Y-4006519D03*
G01*
X3015945Y-4006519D03*
G01*
X3269945Y-4006519D03*
G01*
X3777945Y-4006519D03*
G01*
X3523945Y-4006519D03*
G01*
X4285945Y-3212515D03*
G01*
X4031945Y-3212515D03*
G01*
X3777945Y-3212515D03*
G01*
X3523945Y-3212515D03*
G01*
X3269945Y-3212515D03*
G01*
X3015945Y-3212515D03*
G01*
X2761945Y-3212515D03*
G01*
X2507945Y-3212515D03*
D18*
G01*
X1651000Y-1193800D03*
G01*
X1651000Y-939800D03*
G01*
X2311400Y-3657600D03*
G01*
X2311400Y-3403600D03*
G01*
X2286000Y-2336800D03*
G01*
X2286000Y-2082800D03*
G01*
X5384825Y-2971800D03*
G01*
X5384825Y-2717800D03*
G01*
X5410809Y-1143000D03*
G01*
X5410809Y-889000D03*
M02*
